<svg xmlns="http://www.w3.org/2000/svg" viewBox="0 0 254 100" width="254" height="100">
  <g transform="translate(0,12) scale(0.76)">
    <rect x="8" y="12" width="84" height="76" rx="14" fill="none" stroke="#4ADE80" stroke-width="8"></rect>
    <path d="M28 38 L44 52 L28 66" fill="none" stroke="#F3F7F4" stroke-width="8" stroke-linecap="round" stroke-linejoin="round"></path>
    <line x1="52" y1="66" x2="72" y2="66" stroke="#4ADE80" stroke-width="8" stroke-linecap="round"></line>
  </g>
  <path d="M104.21 66L98.46 66L98.46 40.70L104.07 40.70L104.07 45.62Q104.53 43.14 106.35 41.69Q108.17 40.24 111.07 40.24L111.07 40.24Q114.93 40.24 117.09 42.72Q119.25 45.21 119.25 49.67L119.25 49.67L119.25 52.06L113.50 52.06L113.50 49.95Q113.50 47.65 112.31 46.43Q111.11 45.21 108.90 45.21L108.90 45.21Q106.60 45.21 105.41 46.59Q104.21 47.97 104.21 50.50L104.21 50.50L104.21 66ZM133.45 66.46L133.45 66.46Q130.23 66.46 127.83 65.22Q125.44 63.98 124.13 61.70Q122.82 59.42 122.82 56.34L122.82 56.34L122.82 50.36Q122.82 47.28 124.13 45.00Q125.44 42.72 127.83 41.48Q130.23 40.24 133.45 40.24L133.45 40.24Q136.62 40.24 138.99 41.48Q141.36 42.72 142.67 44.95Q143.98 47.19 143.98 50.18L143.98 50.18L143.98 54.78L128.34 54.78L128.34 56.52Q128.34 59.10 129.67 60.41Q131.01 61.72 133.45 61.72L133.45 61.72Q135.24 61.72 136.50 61.10Q137.77 60.48 138 59.28L138 59.28L143.70 59.28Q143.11 62.55 140.30 64.50Q137.49 66.46 133.45 66.46ZM128.34 50.18L128.34 50.18L128.34 51.05L138.46 51.00L138.46 50.13Q138.46 47.51 137.17 46.08Q135.88 44.66 133.45 44.66L133.45 44.66Q130.92 44.66 129.63 46.11Q128.34 47.55 128.34 50.18ZM162.68 66L155.37 66L146.86 40.70L152.88 40.70L157.76 56.06Q158.22 57.44 158.56 58.85Q158.91 60.25 159.05 61.26L159.05 61.26Q159.23 60.25 159.53 58.85Q159.83 57.44 160.24 56.11L160.24 56.11L165.07 40.70L171.14 40.70L162.68 66ZM188.28 66L180.97 66L172.46 40.70L178.48 40.70L183.36 56.06Q183.82 57.44 184.16 58.85Q184.51 60.25 184.65 61.26L184.65 61.26Q184.83 60.25 185.13 58.85Q185.43 57.44 185.84 56.11L185.84 56.11L190.67 40.70L196.74 40.70L188.28 66Z" fill="#F3F7F4"></path>
  <path d="M210.20 66.41L210.20 66.41Q205.32 66.41 202.47 63.68Q199.62 60.94 199.62 56.29L199.62 56.29L199.62 50.41Q199.62 45.71 202.47 43Q205.32 40.29 210.20 40.29L210.20 40.29Q215.08 40.29 217.93 43Q220.78 45.71 220.78 50.41L220.78 50.41L220.78 56.29Q220.78 60.94 217.93 63.68Q215.08 66.41 210.20 66.41ZM210.20 61.40L210.20 61.40Q212.50 61.40 213.76 60.13Q215.03 58.87 215.03 56.48L215.03 56.48L215.03 50.22Q215.03 47.83 213.76 46.56Q212.50 45.30 210.20 45.30L210.20 45.30Q207.90 45.30 206.63 46.56Q205.37 47.83 205.37 50.22L205.37 50.22L205.37 56.48Q205.37 58.87 206.63 60.13Q207.90 61.40 210.20 61.40ZM236.77 66.41L234.74 66.41Q230.23 66.41 227.61 64.37Q224.99 62.32 224.99 58.82L224.99 58.82L230.65 58.82Q230.65 60.30 231.73 61.08Q232.81 61.86 234.74 61.86L234.74 61.86L236.77 61.86Q238.84 61.86 239.96 61.08Q241.09 60.30 241.09 58.82L241.09 58.82Q241.09 57.44 240.31 56.78Q239.53 56.11 237.92 55.88L237.92 55.88L231.61 55.05Q228.58 54.64 226.94 52.71Q225.31 50.77 225.31 47.69L225.31 47.69Q225.31 44.10 227.70 42.20Q230.10 40.29 234.60 40.29L234.60 40.29L236.72 40.29Q240.95 40.29 243.53 42.22Q246.10 44.15 246.20 47.37L246.20 47.37L240.49 47.37Q240.45 46.17 239.43 45.46Q238.42 44.75 236.72 44.75L236.72 44.75L234.60 44.75Q232.76 44.75 231.80 45.51Q230.83 46.27 230.83 47.55L230.83 47.55Q230.83 48.70 231.54 49.26Q232.26 49.81 233.64 49.95L233.64 49.95L239.57 50.77Q243.07 51.19 244.84 53.23Q246.61 55.28 246.61 58.73L246.61 58.73Q246.61 62.41 244.10 64.41Q241.60 66.41 236.77 66.41L236.77 66.41Z" fill="#4ADE80"></path>
</svg>